# AST/ASF file generated using VICON BodyLanguage
# -----------------------------------------------
:version 1.10
:name VICON
:units
  mass 1.0
  length 0.45
  angle deg
:documentation
   .ast/.asf automatically generated from VICON data using
   VICON BodyBuilder and BodyLanguage model FoxedUp or BRILLIANT.MOD
:root
   order TX TY TZ RX RY RZ
   axis XYZ
   position 0 0 0  
   orientation 0 0 0 
:bonedata
  begin
     id 1 
     name lhipjoint
     direction 0.70531 -0.63749 0.310071 
     length 2.59589 
     axis 0 0 0  XYZ
  end
  begin
     id 2 
     name lfemur
     direction 0.34202 -0.939693 0  
     length 6.19797  
     axis 0 0 20  XYZ
    dof rx ry rz
    limits (-160.0 20.0)
           (-70.0 70.0)
           (-60.0 70.0)
  end
  begin
     id 3 
     name ltibia
     direction 0.34202 -0.939693 0   
     length 7.80054   
     axis 0 0 20   XYZ
    dof rx
    limits (-10.0 170.0)
  end
  begin
     id 4 
     name lfoot
     direction 0.0828572 -0.227648 0.970212   
     length 1.88124   
     axis -90 7.62852e-016 20   XYZ
    dof rx rz
    limits (-45.0 90.0)
           (-70.0 20.0)
  end
  begin
     id 5 
     name ltoes
     direction 1.53544e-011 -4.219e-011 1   
     length 0.948015   
     axis -90 7.62852e-016 20   XYZ
    dof rx
    limits (-90.0 20.0)
  end
  begin
     id 6 
     name rhipjoint
     direction -0.730062 -0.614543 0.29891   
     length 2.69282  
     axis 0 0 0  XYZ 
  end
  begin
     id 7 
     name rfemur
     direction -0.34202 -0.939693 0   
     length 5.86298   
     axis 0 0 -20   XYZ
    dof rx ry rz
    limits (-160.0 20.0)
           (-70.0 70.0)
           (-70.0 60.0)
  end
  begin
     id 8 
     name rtibia
     direction -0.34202 -0.939693 0   
     length 7.72374   
     axis 0 0 -20   XYZ
    dof rx
    limits (-10.0 170.0)
 end
 begin
     id 9 
     name rfoot
     direction -0.0967421 -0.265797 0.959163   
     length 2.02368  
     axis -90 -7.62852e-016 -20   XYZ
    dof rx rz
    limits (-45.0 90.0)
           (-20.0 70.0)
  end
  begin
     id 10 
     name rtoes
     direction -1.53524e-011 -4.21768e-011 1   
     length 1.01373   
     axis -90 -7.62852e-016 -20   XYZ
    dof rx
    limits (-90.0 20.0)
  end
  begin
     id 11 
     name lowerback
     direction 0.00561702 0.992801 -0.119643   
     length 2.02816   
     axis 0 0 0   XYZ
    dof rx ry rz
    limits (-20.0 45.0)
           (-30.0 30.0)
           (-30.0 30.0)
  end
  begin
     id 12 
     name upperback
     direction 0.00155544 0.995735 -0.0922509   
     length 2.02265   
     axis 0 0 0   XYZ
    dof rx ry rz
    limits (-20.0 45.0)
           (-30.0 30.0)
           (-30.0 30.0)
  end
  begin
     id 13 
     name thorax
     direction -0.000937535 0.999317 -0.0369292   
     length 2.04823   
     axis 0 0 0   XYZ
    dof rx ry rz
    limits (-20.0 45.0)
           (-30.0 30.0)
           (-30.0 30.0)
  end
  begin
     id 14 
     name lowerneck
     direction -0.0813151 0.981659 0.172436   
     length 1.8875   
     axis 0 0 0   XYZ
    dof rx ry rz
    limits (-20.0 45.0)
           (-30.0 30.0)
           (-30.0 30.0)
  end
  begin
     id 15 
     name upperneck
     direction 0.119359 0.955672 -0.269157   
     length 1.92801   
     axis 0 0 0   XYZ
    dof rx ry rz
    limits (-20.0 45.0)
           (-30.0 30.0)
           (-30.0 30.0)
  end
  begin
     id 16
     name head
     direction 0.0421007 0.992672 -0.113268  
     length 1.95809  
     axis 0 0 0   XYZ
    dof rx ry rz
    limits (-20.0 45.0)
           (-30.0 30.0)
           (-30.0 30.0)
  end
  begin
     id 17 
     name lclavicle
     direction 0.944093 0.32865 -0.0260136  
     length 3.84992  
     axis 0 0 0   XYZ
    dof ry rz
    limits (-20.0 10.0)
           (0.0 20.0)
  end
  begin
     id 18 
     name lhumerus
     direction 1 -4.48979e-011 -1.27712e-029   
     length 5.53593   
     axis 180 -30 -90   XYZ
    dof rx ry rz
    limits (-60.0 90.0)
           (-90.0 90.0)
           (-90.0 90.0)
  end
  begin
     id 19
     name lradius
     direction 1 -4.48966e-011 1.00051e-028   
     length 3.13345   
     axis 180 -30 -90   XYZ
    dof rx
    limits (-10.0 170.0)
  end
  begin
     id 20
     name lwrist
     direction 1 -4.4896e-011 2.56952e-028   
     length 1.56673   
     axis -5.12785e-016 90 90   XYZ
    dof ry
    limits (-180.0 0.0)
 end
  begin
     id 21 
     name lhand
     direction 1 -4.48934e-011 5.13905e-028   
     length 0.713374   
     axis -3.27915e-016 90 90   XYZ
    dof rx rz
    limits (-90.0 90.0)
           (-45.0 45.0)
  end
  begin
     id 22 
     name lfingers
     direction 1 -4.48973e-011 1.02781e-027   
     length 0.575141   
     axis -6.5583e-016 90 90   XYZ
    dof rx
    limits (0.0 90.0)
  end
  begin
     id 23
     name lthumb
     direction 0.707107 -6.34883e-011 0.707107   
     length 0.82579   
     axis -90 45 2.85299e-015   XYZ
    dof rx rz
    limits (-45.0 45.0)
           (-45.0 45.0)
  end
  begin
     id 24 
     name rclavicle
     direction -0.936895 0.34884 0.0232243   
     length 3.53304  
     axis 0 0 0   XYZ 
    dof ry rz
    limits (-10.0 20.0)
           (-20.0 0.0)
  end
  begin
     id 25 
     name rhumerus
     direction -1 -4.48965e-011 1.05514e-027  
     length 5.4685   
     axis 180 30 90   XYZ
    dof rx ry rz
    limits (-90.0 60.0)
           (-90.0 90.0)
           (-90.0 90.0)
  end
  begin
     id 26 
     name rradius
     direction -1 -4.48964e-011 -1.1079e-027   
     length 3.22411   
     axis 180 30 90   XYZ
    dof rx
    limits (-10.0 170.0)
  end
  begin
     id 27 
     name rwrist
     direction -1 -4.48973e-011 2.56952e-028   
     length 1.61206   
     axis -5.12785e-016 -90 -90   XYZ
    dof ry
    limits (-180.0 0.0)
  end
  begin
     id 28
     name rhand
     direction -1 -4.48957e-011 5.13905e-028   
     length 0.74528   
     axis -3.27915e-016 -90 -90   XYZ
    dof rx rz
    limits (-90.0 90.0)
           (-45.0 45.0)
  end
  begin
     id 29
     name rfingers
     direction -1 -4.4901e-011 1.02781e-027   
     length 0.600864   
     axis -6.5583e-016 -90 -90   XYZ
    dof rx
    limits (0.0 90.0)
  end
  begin
     id 30
     name rthumb
     direction -0.707107 -6.34972e-011 0.707107   
     length 0.862724   
     axis -90 -45 -2.85299e-015   XYZ
    dof rx rz
    limits (-45.0 45.0)
           (-45.0 45.0)
  end
:hierarchy
  begin
    root lhipjoint rhipjoint lowerback
    lhipjoint lfemur
    lfemur ltibia
    ltibia lfoot
    lfoot ltoes
    rhipjoint rfemur
    rfemur rtibia
    rtibia rfoot
    rfoot rtoes
    lowerback upperback
    upperback thorax
    thorax lowerneck lclavicle rclavicle
    lowerneck upperneck
    upperneck head
    lclavicle lhumerus
    lhumerus lradius
    lradius lwrist
    lwrist lhand lthumb
    lhand lfingers
    rclavicle rhumerus
    rhumerus rradius
    rradius rwrist
    rwrist rhand rthumb
    rhand rfingers
  end

#!OML:ASF G:\Work\Work\Patient Classification 1\Liu\Session 1\Liu.ASF
:FULLY-SPECIFIED
:DEGREES
65
root 10.7498 16.9963 -33.6436 3.70284 -1.62433 3.27958
lowerback 1.30597 -1.50279 -5.19849
upperback 1.8142 -2.01197 -1.75529
thorax 1.2503 -1.05844 1.10799
lowerneck -12.2563 -10.3808 -17.6084
upperneck 16.5255 -13.1124 11.9298
head 9.19117 -6.26772 5.24272
rclavicle 2.98177e-016 -1.35174e-014
rhumerus -44.1344 16.8954 -91.209
rradius 45.1366
rwrist -11.751
rhand -16.4066 17.3198
rfingers 7.12502
rthumb 9.80786 -12.4318
lclavicle 2.98177e-016 -1.35174e-014
lhumerus -26.4254 -7.45764 83.9159
lradius 31.425
lwrist -1.46121
lhand -13.081 31.971
lfingers 7.12502
lthumb 13.0151 61.545
rfemur -27.8344 -9.07539 18.5305
rtibia 66.8966
rfoot -8.55338 -12.5625
rtoes -10.298
lfemur -15.2061 1.11953 -30.5159
ltibia 28.995
lfoot -20.8213 1.27847
ltoes -14.8968
66
root 10.7466 16.9802 -33.5389 3.7281 -1.36278 3.29116
lowerback 1.27123 -1.49068 -5.14499
upperback 2.10004 -1.97937 -1.8553
thorax 1.55712 -1.05112 0.968849
lowerneck -13.0233 -10.6437 -17.4269
upperneck 16.495 -13.4149 12.0811
head 9.36653 -6.35341 5.18592
rclavicle 2.0276e-014 -4.37326e-015
rhumerus -43.5566 16.4695 -91.0177
rradius 45.2041
rwrist -11.8616
rhand -14.2013 12.3356
rfingers 7.12502
rthumb 11.935 -17.3042
lclavicle 2.0276e-014 -4.37326e-015
lhumerus -25.4164 -8.54069 83.88
lradius 31.7676
lwrist -0.886985
lhand -12.904 32.5336
lfingers 7.12502
lthumb 13.1858 62.0966
rfemur -28.6973 -8.8104 18.7601
rtibia 66.0191
rfoot -9.93563 -12.1767
rtoes -10.4163
lfemur -14.8279 0.862896 -30.5198
ltibia 29.0753
lfoot -21.0187 0.856483
ltoes -12.1569
67
root 10.7428 16.9618 -33.4251 3.65911 -1.21461 3.23775
lowerback 1.56921 -1.52039 -5.23687
upperback 2.0392 -2.04371 -1.75979
thorax 1.33776 -1.07994 1.128
lowerneck -12.9904 -10.7183 -17.5233
upperneck 16.4259 -13.5119 12.1425
head 9.36462 -6.3999 5.20632
rclavicle 2.13694e-014 1.31198e-014
rhumerus -43.6637 16.3113 -90.8301
rradius 45.27
rwrist -11.5255
rhand -16.1317 15.7529
rfingers 7.12502
rthumb 10.0731 -13.986
lclavicle 2.13694e-014 1.31198e-014
lhumerus -25.22 -9.04794 84.0446
lradius 32.2803
lwrist -0.381991
lhand -12.1315 33.8615
lfingers 7.12502
lthumb 13.9303 63.3748
rfemur -29.3666 -8.46478 19.005
rtibia 64.9861
rfoot -10.8983 -12.1246
rtoes -10.2286
lfemur -14.3154 0.621604 -30.4557
ltibia 29.1926
lfoot -21.22 0.012874
ltoes -8.28253
68
root 10.7376 16.95 -33.2992 3.48899 -1.04134 3.09172
lowerback 1.81683 -1.65313 -5.32671
upperback 1.85094 -2.24826 -1.55383
thorax 1.02891 -1.17516 1.4013
lowerneck -12.304 -10.5571 -17.7392
upperneck 16.2142 -13.3247 12.0662
head 9.14766 -6.35904 5.27046
rclavicle 3.598e-014 1.39149e-014
rhumerus -44.145 16.4106 -90.7036
rradius 45.3745
rwrist -11.2424
rhand -16.5391 16.7218
rfingers 7.12502
rthumb 9.68008 -13.0358
lclavicle 3.598e-014 1.39149e-014
lhumerus -25.4578 -9.06199 84.2184
lradius 32.6806
lwrist -0.174722
lhand -11.5141 34.6101
lfingers 7.12502
lthumb 14.5252 64.0817
rfemur -29.8296 -8.1282 19.3215
rtibia 63.7641
rfoot -10.8767 -12.717
rtoes -9.22169
lfemur -13.6446 0.290691 -30.2858
ltibia 29.2795
lfoot -21.605 -0.484873
ltoes -6.43627
69
root 10.7394 16.9412 -33.1795 3.56046 -0.733728 3.13231
lowerback 1.60087 -1.83501 -5.37846
upperback 1.8362 -2.4765 -1.51194
thorax 1.15368 -1.29246 1.46576
lowerneck -12.1351 -10.4379 -17.7986
upperneck 16.1416 -13.1529 11.9952
head 9.06345 -6.29477 5.28964
rclavicle -1.93815e-014 -1.98785e-015
rhumerus -44.2397 16.5581 -90.6671
rradius 45.5852
rwrist -11.4486
rhand -15.9147 15.9784
rfingers 7.12502
rthumb 10.2825 -13.7503
lclavicle -1.93815e-014 -1.98785e-015
lhumerus -25.2722 -9.25302 84.2083
lradius 32.9953
lwrist -0.010159
lhand -11.7002 34.2472
lfingers 7.12502
lthumb 14.3459 63.7316
rfemur -30.5311 -7.98453 19.4115
rtibia 62.426
rfoot -10.4643 -13.3517
rtoes -8.84311
lfemur -13.2367 -0.0678186 -30.353
ltibia 29.2907
lfoot -21.9941 0.0259411
ltoes -7.85711
70
root 10.7471 16.9273 -33.0691 3.7404 -0.346244 3.46714
lowerback 1.11398 -1.94683 -5.48106
upperback 2.32986 -2.56699 -1.69473
thorax 1.93909 -1.36265 1.30326
lowerneck -13.5133 -10.7025 -17.5258
upperneck 16.3331 -13.3487 11.9779
head 9.38814 -6.31683 5.15462
rclavicle 1.87355e-014 -1.19271e-015
rhumerus -43.1568 16.4803 -90.4873
rradius 45.5932
rwrist -11.6647
rhand -15.7887 15.6082
rfingers 7.12502
rthumb 10.404 -14.1143
lclavicle 1.87355e-014 -1.19271e-015
lhumerus -23.83 -9.84582 83.9931
lradius 33.0794
lwrist 0.206059
lhand -12.6824 32.8106
lfingers 7.12502
lthumb 13.3993 62.3596
rfemur -31.2622 -8.12456 19.1179
rtibia 60.9967
rfoot -11.5872 -12.5923
rtoes -12.3958
lfemur -12.9151 -0.326612 -30.7622
ltibia 29.2324
lfoot -22.4216 0.187915
ltoes -9.36546
71
root 10.7492 16.9168 -32.9582 3.84965 -0.0802254 3.64534
lowerback 1.15032 -1.90325 -5.41445
upperback 2.91211 -2.48215 -1.86725
thorax 2.50502 -1.33818 1.07622
lowerneck -15.9665 -11.2755 -17.1033
upperneck 16.8733 -13.8622 11.9231
head 10.0665 -6.43443 4.88464
rclavicle -3.21037e-014 -2.14687e-014
rhumerus -41.5745 15.9561 -90.113
rradius 45.3435
rwrist -11.6136
rhand -16.5173 17.201
rfingers 7.12502
rthumb 9.70109 -12.5556
lclavicle -3.21037e-014 -2.14687e-014
lhumerus -21.9164 -10.982 83.8012
lradius 33.029
lwrist 0.896212
lhand -13.4679 32.0283
lfingers 7.12502
lthumb 12.6422 61.6257
rfemur -31.8646 -8.07381 19.0101
rtibia 59.3818
rfoot -13.6426 -10.9501
rtoes -17.4082
lfemur -12.461 -0.445994 -30.9758
ltibia 29.0744
lfoot -22.7957 -0.175252
ltoes -9.48411
